<svg xmlns="http://www.w3.org/2000/svg" width="25.491" height="24.474" viewBox="0 0 25.491 24.474">
  <path id="Icon_awesome-star" data-name="Icon awesome-star" d="M11.909.78l-2.862,5.8-6.4.934a1.4,1.4,0,0,0-.776,2.393L6.5,14.426,5.4,20.8a1.4,1.4,0,0,0,2.034,1.477l5.729-3.011L18.9,22.281A1.4,1.4,0,0,0,20.93,20.8l-1.1-6.378,4.633-4.515a1.4,1.4,0,0,0-.776-2.393l-6.4-.934L14.425.78a1.4,1.4,0,0,0-2.516,0Z" transform="translate(-0.421 1.001)" fill="none" stroke="#4b4b4b" stroke-linecap="round" stroke-linejoin="round" stroke-width="2"/>
</svg>
